<svg width="38" height="39" viewBox="0 0 38 39" fill="none" xmlns="http://www.w3.org/2000/svg">
<path d="M13.7166 1.27619C8.79527 2.6736 5.02836 6.07597 2.41582 11.4226C1.13993 14.0958 0.775391 15.6148 0.775391 19.0171C0.836147 27.0978 4.17776 32.9912 10.618 36.0897C13.8381 37.6694 14.5671 37.7909 24.2275 38.034C33.1587 38.277 34.6776 38.1555 36.075 37.3049L37.6547 36.272L37.4116 25.2143C37.2294 12.9415 36.6826 10.9365 32.7334 6.37975C28.6019 1.70149 20.2783 -0.546507 13.7166 1.27619ZM25.4426 8.38472C32.1866 12.82 33.2194 22.541 27.5691 28.1914C19.61 36.2113 7.15484 30.6824 7.15484 19.0779C7.15484 15.2502 8.49148 12.0301 11.104 9.59985C13.4128 7.41261 15.5393 6.68353 19.3669 6.62278C22.1617 6.56202 23.1946 6.8658 25.4426 8.38472Z" fill="#0052FF"/>
</svg>
